<?xml version="1.0" standalone="no"?>
<!DOCTYPE svg PUBLIC "-//W3C//DTD SVG 20010904//EN"
 "http://www.w3.org/TR/2001/REC-SVG-20010904/DTD/svg10.dtd">
<svg version="1.0" xmlns="http://www.w3.org/2000/svg"
 width="512.000000pt" height="512.000000pt" viewBox="0 0 512.000000 512.000000"
 preserveAspectRatio="xMidYMid meet">

<g transform="translate(0.000000,512.000000) scale(0.100000,-0.100000)"
fill="#000000" stroke="none">
<path d="M490 5106 c-234 -56 -413 -228 -470 -451 -20 -77 -20 -112 -20 -2095
0 -1983 0 -2018 20 -2095 43 -168 164 -317 320 -394 190 -93 370 -93 559 0
117 58 212 153 270 270 74 150 71 82 71 1434 l0 1210 478 -476 c509 -508 518
-516 662 -561 59 -18 97 -23 180 -22 120 0 187 17 295 72 63 32 119 85 540
504 259 257 474 468 478 468 4 0 7 -549 7 -1221 0 -1357 -4 -1275 68 -1414 43
-84 161 -207 242 -252 101 -57 182 -78 305 -78 86 0 125 5 180 22 193 61 347
213 413 407 l27 81 3 2000 c2 1361 -1 2022 -8 2068 -37 243 -202 436 -435 510
-55 17 -94 22 -180 22 -86 0 -125 -5 -180 -22 -98 -31 -187 -87 -259 -162 -33
-36 -385 -390 -781 -788 l-720 -723 -715 718 c-393 394 -737 744 -764 776
-101 120 -265 196 -436 202 -56 2 -117 -2 -150 -10z m235 -181 c82 -22 151
-62 204 -119 25 -27 392 -397 816 -822 534 -537 777 -775 796 -779 16 -4 39 0
56 9 27 14 602 588 1322 1320 298 302 340 341 397 368 253 118 561 -47 613
-327 14 -77 15 -3896 1 -4004 -26 -198 -171 -348 -369 -382 -181 -32 -374 69
-459 240 l-37 75 -5 1362 -5 1362 -24 26 c-29 31 -72 41 -103 25 -13 -6 -270
-258 -573 -559 -609 -606 -590 -590 -745 -612 -65 -10 -88 -9 -145 5 -133 33
-124 25 -715 613 -358 356 -564 555 -581 559 -31 8 -83 -16 -99 -44 -7 -13
-10 -455 -10 -1343 0 -1447 3 -1380 -58 -1492 -83 -153 -276 -248 -446 -219
-174 30 -307 142 -356 302 -20 62 -20 100 -20 2071 0 1972 0 2009 20 2072 68
222 300 351 525 293z"/>
</g>
</svg>
